<svg width="149" height="45" viewBox="0 0 149 45" fill="none" xmlns="http://www.w3.org/2000/svg">
<g opacity="0.9">
<path d="M22.1637 21.9143C21.8194 21.9143 21.4504 21.8167 21.1306 21.6459L14.8578 18.1318C14.169 17.7657 13.7754 17.0824 13.7754 16.3015C13.7754 15.545 14.1936 14.8373 14.8578 14.4713L21.1552 10.9816C21.7948 10.6155 22.5573 10.6155 23.1969 10.9816L29.4943 14.4713C30.1585 14.8373 30.5767 15.545 30.5767 16.3015C30.5767 17.058 30.1585 17.7657 29.4943 18.1318L23.1969 21.6459C22.8771 21.8167 22.5327 21.9143 22.1637 21.9143ZM15.9401 16.3259L22.2129 19.7668L28.3874 16.3015L22.1391 12.8606L15.9401 16.3259Z" fill="white"/>
<path d="M19.1138 34.3601C18.7448 34.3601 18.3758 34.2625 18.056 34.0672L11.8324 30.4555C11.1928 30.0895 10.7992 29.3818 10.7992 28.6497L10.75 21.475C10.75 20.7185 11.1436 20.0352 11.8078 19.6448C12.4719 19.2543 13.2591 19.2543 13.8987 19.6448L20.1469 23.2077C20.8111 23.5737 21.2047 24.2814 21.2047 25.0379V32.2614C21.2047 33.0179 20.8111 33.7012 20.1469 34.0916C19.8271 34.2625 19.4581 34.3601 19.1138 34.3601ZM12.8901 21.5482L12.9393 28.6497L19.04 32.1638V25.0379L12.8901 21.5482Z" fill="white"/>
<path d="M25.214 34.3845C24.845 34.3845 24.5006 34.2869 24.1808 34.1161C23.5166 33.7256 23.123 33.0667 23.123 32.2858V25.0624C23.123 24.3059 23.5166 23.6226 24.1808 23.2321L30.429 19.6692C31.0932 19.3031 31.8804 19.3031 32.52 19.6692C33.1842 20.0596 33.5777 20.7429 33.5777 21.4995L33.5531 28.6741C33.5531 29.4062 33.1596 30.1139 32.52 30.4799L26.2964 34.0916C25.9274 34.2869 25.583 34.3845 25.214 34.3845ZM31.3884 21.5971L25.2386 25.1112L25.2632 32.2126L31.3884 28.6497V21.5971Z" fill="white"/>
<path d="M115.641 15.0082C116.478 14.3249 117.56 13.9832 118.888 13.9832C119.774 13.9832 120.512 14.1296 121.151 14.4469C121.791 14.7641 122.258 15.179 122.578 15.7159C122.898 16.2527 123.07 16.8628 123.07 17.5217C123.07 18.327 122.824 19.0347 122.332 19.6448C121.84 20.2305 121.151 20.5966 120.266 20.743V20.8406C121.201 21.0114 121.939 21.4263 122.48 22.0364C123.021 22.6464 123.316 23.4518 123.316 24.4523C123.316 25.5749 122.947 26.4778 122.185 27.1855C121.422 27.8932 120.34 28.2348 118.913 28.2348C117.535 28.2348 116.428 27.8932 115.543 27.1855C114.657 26.4778 114.165 25.4772 114.018 24.1839H115.346C115.469 25.038 115.838 25.7457 116.453 26.2826C117.068 26.8194 117.88 27.0879 118.888 27.0879C119.897 27.0879 120.659 26.8194 121.176 26.307C121.693 25.7945 121.963 25.1356 121.963 24.3303C121.963 22.378 120.536 21.3775 117.658 21.3775H117.215V20.2549H117.658C120.34 20.2549 121.668 19.4008 121.668 17.6681C121.668 16.9116 121.422 16.3259 120.93 15.8623C120.438 15.3986 119.725 15.179 118.814 15.179C117.929 15.179 117.191 15.3986 116.6 15.8623C116.01 16.3259 115.666 16.9604 115.567 17.7902H114.239C114.337 16.6188 114.805 15.6915 115.641 15.0082Z" fill="white"/>
<path d="M134.115 15.3986C135.197 15.9355 136.034 16.7164 136.624 17.7414C137.19 18.7663 137.485 19.9865 137.485 21.3775C137.485 22.7685 137.19 23.9643 136.624 24.9892C136.058 26.0141 135.222 26.7707 134.115 27.3075C133.033 27.8444 131.729 28.1128 130.204 28.1128H126.12V14.5933H130.204C131.729 14.5933 133.033 14.8618 134.115 15.3986ZM134.582 25.5261C135.591 24.5499 136.083 23.1589 136.083 21.4019C136.083 19.6204 135.591 18.2294 134.582 17.2289C133.574 16.2284 132.122 15.7159 130.204 15.7159H127.498V27.0147H130.204C132.122 27.0147 133.574 26.5022 134.582 25.5261Z" fill="white"/>
<path d="M50.5513 24.2815H45.6561C44.9427 24.2815 44.3523 23.6958 44.3523 23.0125C44.3523 22.3292 44.9427 21.7435 45.6561 21.7435H50.5513V20.7674C50.5513 19.3276 49.5919 18.4002 48.239 18.4002H45.902C44.5737 18.4002 43.5897 19.3276 43.5897 20.7674V27.0391C43.5897 27.7712 42.9747 28.3813 42.2368 28.3813C41.4988 28.3813 40.8838 27.7712 40.8838 27.0391V20.743C40.8838 17.9122 43.0977 15.8135 45.902 15.8135H48.239C51.0679 15.8135 53.2572 17.9122 53.2572 20.743V27.0147C53.2572 27.7468 52.6423 28.3569 51.9043 28.3569C51.1663 28.3569 50.5513 27.7468 50.5513 27.0147V24.2815Z" fill="white"/>
<path d="M60.0963 23.3786C59.8011 23.1345 59.6289 22.8173 59.6289 22.4512C59.6289 21.8167 60.1701 21.2799 60.8342 21.2799H64.0321C64.8931 21.2799 65.5573 20.6454 65.5573 19.8156C65.5573 19.0103 64.9177 18.3514 64.0321 18.3514H58.4481V26.9903C58.4481 27.7224 57.8331 28.3325 57.0951 28.3325C56.3572 28.3325 55.7422 27.7224 55.7422 26.9903V16.8872C55.7422 16.3015 56.2342 15.8135 56.8246 15.8135H64.3519C66.5167 15.8135 68.2878 17.5461 68.2878 19.7424C68.2878 21.8411 66.6889 23.4518 64.6963 23.6226L67.7466 25.9653C68.3616 26.429 68.4846 27.2343 67.9926 27.82C67.5498 28.3813 66.6889 28.5277 66.0985 28.064L60.0963 23.3786Z" fill="white"/>
<path d="M71.0921 15.2766C70.8953 15.0814 70.7969 14.8373 70.7969 14.5689C70.7969 14.3005 70.8953 14.0564 71.0921 13.8612C71.2889 13.666 71.5349 13.5684 71.8055 13.5684C72.076 13.5684 72.322 13.666 72.5188 13.8612C72.7156 14.0564 72.814 14.2761 72.814 14.5689C72.814 14.8617 72.7156 15.0814 72.5188 15.2766C72.322 15.4718 72.076 15.5694 71.8055 15.5694C71.5349 15.5694 71.2889 15.4718 71.0921 15.2766ZM72.4942 17.5461V28.1128H71.1167V17.5461H72.4942Z" fill="white"/>
<path d="M78.0043 18.6931V25.2576C78.0043 25.8921 78.1273 26.3558 78.3733 26.5998C78.6193 26.8438 79.0621 26.9658 79.7016 26.9658H80.9562V28.1372H79.4803C78.4963 28.1372 77.7829 27.9176 77.3155 27.4783C76.8481 27.039 76.6021 26.3069 76.6021 25.282V18.6931H75.1016V17.5461H76.6021V14.9105H78.0043V17.5705H80.9562V18.7175L78.0043 18.6931Z" fill="white"/>
<path d="M83.8098 15.2766C83.613 15.0814 83.5146 14.8373 83.5146 14.5689C83.5146 14.3005 83.613 14.0564 83.8098 13.8612C84.0066 13.666 84.2526 13.5684 84.5232 13.5684C84.7938 13.5684 85.0398 13.666 85.2366 13.8612C85.4334 14.0564 85.5318 14.2761 85.5318 14.5689C85.5318 14.8617 85.4334 15.0814 85.2366 15.2766C85.0398 15.4718 84.7938 15.5694 84.5232 15.5694C84.2526 15.5694 84.0066 15.4718 83.8098 15.2766ZM85.212 17.5461V28.1128H83.8344V17.5461H85.212Z" fill="white"/>
<path d="M89.6644 27.0147H95.2976V28.1373H88.0654V27.0147L93.6003 18.6931H88.1638V17.5706H95.1992V18.6931L89.6644 27.0147Z" fill="white"/>
<path d="M107.892 23.3786H98.9625C99.0117 24.1839 99.2085 24.8672 99.5529 25.4285C99.8973 25.9898 100.365 26.429 100.955 26.7219C101.521 27.0147 102.16 27.1611 102.849 27.1611C103.735 27.1611 104.497 26.9415 105.112 26.5266C105.727 26.1118 106.121 25.5261 106.318 24.794H107.769C107.498 25.8189 106.933 26.6731 106.096 27.3319C105.235 27.9908 104.153 28.3081 102.849 28.3081C101.841 28.3081 100.93 28.0885 100.143 27.6492C99.3315 27.2099 98.7165 26.5754 98.2737 25.7457C97.831 24.916 97.585 23.9643 97.585 22.8661C97.585 21.768 97.8063 20.8162 98.2491 19.9865C98.6919 19.1568 99.3315 18.5223 100.119 18.083C100.93 17.6438 101.841 17.4241 102.849 17.4241C103.882 17.4241 104.768 17.6438 105.531 18.083C106.293 18.5223 106.883 19.108 107.302 19.8645C107.72 20.5966 107.917 21.4263 107.917 22.3292C107.941 22.7685 107.917 23.1101 107.892 23.3786ZM106.047 20.2549C105.703 19.6937 105.26 19.2788 104.67 18.986C104.079 18.6931 103.464 18.5711 102.775 18.5711C101.742 18.5711 100.881 18.8883 100.168 19.5472C99.4545 20.1817 99.0363 21.1091 98.9625 22.2804H106.514C106.539 21.4751 106.391 20.7918 106.047 20.2549Z" fill="white"/>
</g>
</svg>
