<?xml version="1.0" encoding="UTF-8"?>
<svg width="365px" height="169px" viewBox="0 0 365 169" version="1.1" xmlns="http://www.w3.org/2000/svg" xmlns:xlink="http://www.w3.org/1999/xlink">
    <title>01AB2B5E-B52C-4EC4-AAFD-4431F6A6414F</title>
    <g id="App" stroke="none" stroke-width="1" fill="none" fill-rule="evenodd">
        <g id="App-/-AR-Transition" transform="translate(-24.000000, -280.000000)">
            <g id="Group-2" transform="translate(24.000000, 280.000000)">
                <g id="Group" fill="#FFFFFF" fill-rule="nonzero">
                    <polygon id="Path" fill-opacity="0.0500000007" points="364.791261 88.0726202 360.421875 88.0726202 4.68281615 88.0726202 0.343454299 88.0726202 3.42502874 85.0735932 88.640832 2.13931818 89.1631302 1.63097445 89.8986183 1.63097445 274.376816 1.63097445 275.10727 1.63097445 275.628478 2.13333766 361.673537 85.0676081"></polygon>
                    <path d="M90.213752,3.51899805 L5.02000452,86.7282547 L360.666859,86.7282547 L274.644119,3.51899805 L90.213752,3.51899805 M90.213752,0 L274.644119,0 C275.580197,0 276.478811,0.361971319 277.14674,1.00804632 L363.169498,84.217303 C364.204666,85.2186015 364.522288,86.737195 363.973272,88.06005 C363.42422,89.382896 362.117578,90.2472527 360.666859,90.2472527 L5.02000452,90.2472527 C3.57244718,90.2472527 2.26798497,89.3866099 1.71693427,88.0679164 C1.16584722,86.7492676 1.47707369,85.2333141 2.50508394,84.2292771 L87.6988132,1.02002045 C88.3677957,0.366615993 89.2717151,0 90.213752,0 Z" id="Shape"></path>
                </g>
                <rect id="Rectangle" fill-opacity="0.24" fill="#FFFFFF" x="159.436813" y="67.1840659" width="47.1291209" height="99.271978"></rect>
                <path d="M157.431319,71.8852617 C157.431319,68.1812547 160.464738,65.1785714 164.20662,65.1785714 L200.79338,65.1785714 C204.535262,65.1785714 207.568681,68.1812547 207.568681,71.8852617 L207.568681,161.754816 C207.568681,165.458801 204.535262,168.461538 200.79338,168.461538 L164.20662,168.461538 C160.464738,168.461538 157.431319,165.458801 157.431319,161.754816 L157.431319,71.8852617 Z M159.102564,72.2981061 C159.102564,69.5797481 161.339991,67.3760814 164.10002,67.3760814 L169.551891,67.3760814 C169.551891,69.6001945 171.382482,71.4031916 173.640738,71.4031916 L191.359262,71.4031916 C193.617518,71.4031916 195.448109,69.6001945 195.448109,67.3760814 L200.89998,67.3760814 C203.660009,67.3760814 205.897436,69.5797481 205.897436,72.2981061 L205.897436,161.341928 C205.897436,164.060362 203.660009,166.264029 200.89998,166.264029 L164.10002,166.264029 C161.339991,166.264029 159.102564,164.060362 159.102564,161.341928 C159.102564,135.092925 159.102564,115.406172 159.102564,102.28167 C159.102564,95.6186561 159.102564,85.6241347 159.102564,72.2981061 Z" id="Shape" fill="#000000"></path>
            </g>
        </g>
    </g>
</svg>