<svg xmlns="http://www.w3.org/2000/svg" xmlns:xlink="http://www.w3.org/1999/xlink" width="120" zoomAndPan="magnify" viewBox="0 0 90 33.749998" height="45" preserveAspectRatio="xMidYMid meet" version="1.0"><defs><g/></defs><g fill="#ffffff" fill-opacity="1"><g transform="translate(1.84417, 25.013545)"><g><path d="M 0.984375 -5.875 C 2.65625 -1.128906 5.503906 0.492188 8.972656 0.492188 C 11.96875 0.492188 14.476562 -1.105469 14.476562 -4.398438 C 14.476562 -7.421875 12.289062 -8.945312 8.109375 -12.019531 C 5.0625 -14.253906 3.636719 -15.140625 3.636719 -17.058594 C 3.636719 -18.679688 4.890625 -19.761719 7.003906 -19.761719 C 10.152344 -19.761719 11.429688 -17.277344 11.894531 -14.871094 L 13.863281 -15.605469 C 12.164062 -18.652344 10.027344 -20.152344 7.128906 -20.152344 C 4.277344 -20.152344 2.210938 -18.753906 2.210938 -16.195312 C 2.210938 -13.761719 3.6875 -12.632812 7.203125 -10.027344 C 10.886719 -7.226562 13.074219 -5.777344 13.074219 -3.613281 C 13.074219 -1.128906 11.378906 0.0976562 9.117188 0.0976562 C 5.875 0.0976562 3.441406 -2.753906 2.949219 -6.832031 Z M 0.984375 -5.875 "/></g></g></g><g fill="#ffffff" fill-opacity="1"><g transform="translate(17.3025, 25.013545)"><g><path d="M 11.746094 -2.679688 C 10.519531 -4.351562 8.871094 -5.503906 5.675781 -5.949219 C 9.316406 -6.09375 11.921875 -7.25 11.921875 -9.488281 C 11.921875 -11.207031 10.691406 -12.09375 8.871094 -12.09375 C 6.339844 -12.09375 4.597656 -10.46875 3.90625 -7.71875 L 3.90625 -14.820312 C 3.90625 -16.320312 3.90625 -17.648438 4.105469 -19.660156 L 1.574219 -19.660156 C 1.769531 -17.648438 1.769531 -16.320312 1.769531 -14.820312 L 1.769531 -4.839844 C 1.769531 -3.34375 1.769531 -2.015625 1.574219 0 L 4.105469 0 C 3.90625 -2.015625 3.90625 -3.34375 3.90625 -4.839844 L 3.90625 -4.890625 C 3.90625 -5.210938 3.90625 -5.53125 3.933594 -5.847656 C 6.5625 -5.628906 8.085938 -4.621094 9.511719 -2.679688 C 10.371094 -1.476562 10.667969 -0.957031 11.011719 0 L 13.761719 0 C 13.050781 -0.886719 12.609375 -1.476562 11.746094 -2.679688 Z M 8.035156 -11.476562 C 9.191406 -11.476562 9.855469 -10.667969 9.855469 -9.488281 C 9.855469 -7.273438 7.644531 -6.144531 3.957031 -6.144531 C 4.277344 -9.535156 5.875 -11.476562 8.035156 -11.476562 Z M 8.035156 -11.476562 "/></g></g></g><g fill="#ffffff" fill-opacity="1"><g transform="translate(31.900667, 25.013545)"><g><path d="M 11.574219 -11.601562 C 11.429688 -10.9375 11.378906 -10.667969 11.109375 -9.929688 L 7.792969 -0.46875 L 4.152344 -9.929688 C 3.90625 -10.566406 3.785156 -10.886719 3.660156 -11.601562 L 0.933594 -11.601562 C 1.351562 -10.914062 1.546875 -10.542969 1.792969 -9.90625 L 5.578125 0 L 7.617188 0 L 7.59375 0.0507812 C 6.757812 2.410156 5.605469 3.835938 4.226562 3.835938 C 3.488281 3.835938 3.121094 3.441406 2.703125 2.726562 C 2.164062 1.695312 0.835938 2.1875 1.058594 3.246094 C 1.867188 3.90625 2.925781 4.226562 3.933594 4.226562 C 5.972656 4.226562 7.078125 2.753906 8.035156 0 L 11.550781 -9.90625 C 11.796875 -10.640625 11.894531 -10.9375 12.238281 -11.601562 Z M 11.574219 -11.601562 "/></g></g></g><g fill="#ffffff" fill-opacity="1"><g transform="translate(45.048849, 25.013545)"><g><path d="M 16.367188 -14.820312 C 16.367188 -16.613281 16.417969 -17.597656 16.566406 -19.660156 L 15.828125 -19.660156 C 16 -17.597656 16.023438 -16.613281 16.023438 -14.820312 L 16.023438 -0.957031 L 4.496094 -19.660156 L 1.71875 -19.660156 C 1.867188 -17.597656 1.917969 -16.613281 1.917969 -14.820312 L 1.917969 -4.839844 C 1.917969 -3.046875 1.867188 -2.066406 1.71875 0 L 2.457031 0 C 2.308594 -2.066406 2.261719 -3.046875 2.261719 -4.839844 L 2.261719 -18.703125 L 13.789062 0 L 16.566406 0 C 16.417969 -2.066406 16.367188 -3.046875 16.367188 -4.839844 Z M 16.367188 -14.820312 "/></g></g></g><g fill="#ffffff" fill-opacity="1"><g transform="translate(63.333425, 25.013545)"><g><path d="M 13.101562 -4.398438 C 12.3125 -1.71875 10.667969 -0.0976562 8.257812 -0.0976562 C 5.113281 -0.0976562 3.515625 -2.875 3.515625 -5.949219 C 3.515625 -6.414062 3.539062 -6.882812 3.589844 -7.300781 L 12.828125 -7.300781 C 12.804688 -9.757812 10.863281 -12.09375 7.398438 -12.09375 C 4.078125 -12.09375 1.15625 -9.707031 1.15625 -5.800781 C 1.15625 -1.890625 4.007812 0.492188 7.667969 0.492188 C 10.839844 0.492188 12.65625 -1.449219 13.46875 -4.398438 Z M 7.375 -11.699219 C 9.535156 -11.699219 10.542969 -9.929688 10.542969 -7.667969 L 3.636719 -7.667969 C 4.054688 -10.222656 5.40625 -11.699219 7.375 -11.699219 Z M 7.375 -11.699219 "/></g></g></g><g fill="#ffffff" fill-opacity="1"><g transform="translate(77.710409, 25.013545)"><g><path d="M 9.191406 -5.015625 C 8.652344 -1.253906 7.792969 0.0234375 6.636719 0.0234375 C 5.726562 0.0234375 5.210938 -0.6875 5.210938 -3.144531 L 5.210938 -11.207031 L 8.75 -11.207031 L 8.75 -11.601562 L 3.144531 -11.601562 C 5.359375 -12.460938 5.703125 -14.625 5.703125 -16.6875 L 3.859375 -16.6875 C 3.859375 -14.035156 3.980469 -11.601562 0.738281 -11.601562 L 0.417969 -11.601562 L 0.417969 -11.207031 L 3.070312 -11.207031 L 3.070312 -3.417969 C 3.070312 -0.46875 4.054688 0.613281 5.949219 0.613281 C 7.792969 0.613281 8.921875 -0.640625 9.535156 -5.015625 Z M 9.191406 -5.015625 "/></g></g></g></svg>